<?xml version="1.0" encoding="UTF-8"?>
<svg version="1.1" xmlns="http://www.w3.org/2000/svg" width="100" height="100">
<path d="M0 0 C3.06128468 1.98983504 3.78564992 3.39714039 5 6.8125 C5 12.60112044 1.38872927 16.54012067 -2 21 C-1.33613281 21.53109375 -0.67226563 22.0621875 0.01171875 22.609375 C2.67447917 24.73958333 5.33723958 26.86979167 8 29 C9.37091797 30.05960938 9.37091797 30.05960938 10.76953125 31.140625 C13.93302647 33.77779439 13.96103152 34.60382044 14.375 38.8125 C14.31879192 42.24119313 13.99773575 43.00329345 11.9375 46 C8.18270237 48.55645796 6.48712393 48.5597244 2 48 C-0.62625773 46.46864599 -2.80972251 44.53074294 -5.0625 42.5 C-6.22904311 41.45537283 -7.40723912 40.42358761 -8.59765625 39.40625 C-9.10820557 38.94541016 -9.61875488 38.48457031 -10.14477539 38.00976562 C-12.91641178 36.50121343 -14.89723246 36.61556437 -18 37 C-20.31796223 38.48266281 -20.31796223 38.48266281 -22.26953125 40.6484375 C-23.01267578 41.40640625 -23.75582031 42.164375 -24.52148438 42.9453125 C-25.27751953 43.74710938 -26.03355469 44.54890625 -26.8125 45.375 C-27.58787109 46.1690625 -28.36324219 46.963125 -29.16210938 47.78125 C-34.19091572 52.69771262 -34.19091572 52.69771262 -36.5625 59.10546875 C-35.72037297 64.93602881 -32.23019343 67.45745041 -28 71.3125 C-26.49611395 72.721123 -24.99590142 74.13368178 -23.5 75.55078125 C-22.8296875 76.16606689 -22.159375 76.78135254 -21.46875 77.4152832 C-20 79 -20 79 -20 81 C-14.88766626 81.64358452 -14.88766626 81.64358452 -10.24707031 79.89111328 C-8.60303696 78.35306481 -7.1064494 76.75750899 -5.625 75.0625 C0.78073912 68.10837874 0.78073912 68.10837874 4.8125 67.75 C8.39154719 68.03070958 10.14250017 68.87728584 13 71 C14.65421993 74.30843985 14.75240058 77.45117726 14 81 C12.05728676 84.06806543 9.58582176 86.46804952 7 89 C6.34 89.71800781 5.68 90.43601562 5 91.17578125 C-0.79171576 97.36341508 -5.01061749 100.05415461 -13.54663086 100.33984375 C-22.95164121 100.50386476 -28.12865949 98.15508411 -34.9921875 91.95703125 C-37.58894717 89.42594838 -39.94113315 86.73911445 -42.2734375 83.96484375 C-43.97916297 82.02371273 -45.78832357 80.3121668 -47.6875 78.5625 C-54.39251794 71.82727928 -55.44408147 65.01825527 -55.62890625 55.72265625 C-53.87543024 45.34338521 -47.53300041 38.8925348 -40.125 31.875 C-38.37527681 30.1873054 -36.62784194 28.49723485 -34.8828125 26.8046875 C-34.04540527 25.99290039 -33.20799805 25.18111328 -32.34521484 24.34472656 C-29.04640213 21.04660067 -26.03060391 17.54220541 -23 14 C-20.75451607 11.45366108 -18.45845179 8.96573364 -16.125 6.5 C-15.56425781 5.86835937 -15.00351562 5.23671875 -14.42578125 4.5859375 C-10.01372356 -0.01535066 -6.34042075 -1.25104595 0 0 Z M-9.16362 10.91137695 C-9.72193008 11.47687256 -10.28024017 12.04236816 -10.85546875 12.625 C-11.72526115 13.49547974 -11.72526115 13.49547974 -12.61262512 14.38354492 C-13.84478662 15.61873486 -15.07450943 16.85636147 -16.30200195 18.09619141 C-18.15732728 19.96953426 -20.02028846 21.83498916 -21.88476562 23.69921875 C-27.80082069 29.63320186 -33.5714255 35.61182404 -39 42 C-41.1264188 44.31343283 -43.25650174 46.62280881 -45.3984375 48.921875 C-48.23215753 52.59879952 -48.13985176 56.14140515 -48.328125 60.70703125 C-47.25074183 68.23588745 -42.85857306 72.80896743 -37.75 78.0625 C-37.10675781 78.74376953 -36.46351562 79.42503906 -35.80078125 80.12695312 C-27.1453807 89.73740662 -27.1453807 89.73740662 -15.3125 93.375 C-8.22270398 93.2516992 -4.41637657 90.40881357 0.49609375 85.51171875 C5.01694232 81.34618673 5.01694232 81.34618673 7 76 C1.71616883 76.59656158 -0.97176008 80.9535631 -4.3671875 84.65234375 C-8.33885381 88.19384442 -11.620329 88.97774724 -16.875 89.0625 C-22.25771936 88.14845332 -25.26528946 84.74747878 -29 81 C-30.02031199 80.03582715 -31.04258235 79.07372408 -32.06640625 78.11328125 C-33.14980642 77.07695003 -34.23183773 76.03918592 -35.3125 75 C-36.0864209 74.27139771 -36.0864209 74.27139771 -36.87597656 73.52807617 C-40.96657804 69.49723561 -43.45826538 65.50639221 -44.35546875 59.69921875 C-43.74829182 52.42721597 -39.84771413 48.1854032 -35 43 C-34.5143457 42.47873535 -34.02869141 41.9574707 -33.52832031 41.42041016 C-31.97187055 39.76453959 -30.39770987 38.12833817 -28.8125 36.5 C-28.31387451 35.98332764 -27.81524902 35.46665527 -27.30151367 34.93432617 C-23.52680865 31.16965526 -20.42332863 29.37696223 -15.1875 28.5625 C-7.39573148 29.63195842 -0.94838453 36.22201521 5 41 C5.66 40.67 6.32 40.34 7 40 C5.45049254 35.71136321 2.19924191 33.46676886 -1.3125 30.8125 C-2.16618164 30.13670898 -2.16618164 30.13670898 -3.03710938 29.44726562 C-6.29720748 26.95072666 -8.87987476 25.39423337 -13 25 C-12.5890159 19.82160037 -11.27225264 17.7511749 -7.4375 14.3125 C-4.97077334 12.1450603 -4.97077334 12.1450603 -3 10 C-3 9.01 -3 8.02 -3 7 C-6.00593797 7 -7.13587743 8.89568233 -9.16362 10.91137695 Z " fill="#F2F2F2" transform="translate(59,0)"/>
<path d="M0 0 C0.80448578 -0.00960754 1.60897156 -0.01921509 2.43783569 -0.02911377 C3.30349152 -0.03336365 4.16914734 -0.03761353 5.06103516 -0.04199219 C5.95496979 -0.04769226 6.84890442 -0.05339233 7.76992798 -0.05926514 C9.66122251 -0.06870975 11.55253347 -0.07524698 13.44384766 -0.07910156 C16.33216141 -0.08880692 19.2197634 -0.11983505 22.10791016 -0.15136719 C23.9464476 -0.15789755 25.78499013 -0.16314789 27.62353516 -0.16699219 C28.48514252 -0.17933899 29.34674988 -0.19168579 30.23446655 -0.20440674 C34.9671758 -0.18688885 38.15900225 0.04360476 41.97509766 3.16113281 C44.4754142 6.91160763 44.5111332 8.71969547 43.97509766 13.16113281 C41.95026864 16.04186592 40.35133669 17.87288108 36.81051636 18.61450195 C34.12192009 18.79066179 31.47769725 18.80157473 28.78369141 18.75488281 C27.80143082 18.7549231 26.81917023 18.75496338 25.80714417 18.75500488 C23.73521509 18.74965385 21.66328626 18.73208904 19.59155273 18.703125 C16.41994258 18.66122983 13.2504538 18.66206123 10.07861328 18.66894531 C8.06362457 18.65845386 6.04864679 18.64551601 4.03369141 18.62988281 C3.08570175 18.6296814 2.1377121 18.62947998 1.16099548 18.62927246 C0.27650223 18.6133606 -0.60799103 18.59744873 -1.51928711 18.58105469 C-2.2947438 18.5726355 -3.0702005 18.56421631 -3.86915588 18.55554199 C-6.59156235 18.05745833 -7.99220345 17.00827099 -10.02490234 15.16113281 C-11.09649305 12.18077116 -11.26805344 9.31104474 -11.02490234 6.16113281 C-8.1909282 1.30289143 -5.46833496 0.05284018 0 0 Z M-3.02490234 8.16113281 C-3.02490234 9.15113281 -3.02490234 10.14113281 -3.02490234 11.16113281 C9.84509766 11.16113281 22.71509766 11.16113281 35.97509766 11.16113281 C36.30509766 10.17113281 36.63509766 9.18113281 36.97509766 8.16113281 C23.77509766 8.16113281 10.57509766 8.16113281 -3.02490234 8.16113281 Z " fill="#FDFDFD" transform="translate(48.02490234375,48.8388671875)"/>
</svg>
